<svg xmlns="http://www.w3.org/2000/svg" viewBox="0 0 1066.74 962.44"><path d="M953.3,511.24l-22.18,22.19L533.35,931.2,135.57,533.43l-22.18-22.19C1.28,403.75-2.47,225.73,105,113.62S390.53-2.23,502.64,105.26q4.35,4.17,8.52,8.52L533.35,136l22.18-22.19C662.93,1.59,841-2.3,953.14,105.1s116.08,285.42,8.68,397.62Q957.65,507.07,953.3,511.24Z" style="fill:#d80027"/><path d="M953.3,113.78A278.07,278.07,0,0,0,723.08,33.2c154.26,17.09,265.46,156,248.36,310.28a281,281,0,0,1-80.63,167.79l-22.19,22.19L502.1,900l31.25,31.25L931.12,533.43l22.18-22.19C1063,401.44,1063,223.58,953.3,113.78Z" style="fill:#bd0022"/><path d="M595.84,618.73v-125h125v-125h-125v-125h-125v125h-125v125h125v125Z" style="fill:#f1f2f2"/><path d="M720.83,337.51H627.09V243.77a31.25,31.25,0,0,0-31.25-31.25h-125a31.24,31.24,0,0,0-31.24,31.25v93.74H345.86a31.24,31.24,0,0,0-31.24,31.24v125A31.25,31.25,0,0,0,345.86,525h93.75v93.74A31.24,31.24,0,0,0,470.85,650h125a31.25,31.25,0,0,0,31.25-31.25V525h93.74a31.25,31.25,0,0,0,31.24-31.25v-125A31.24,31.24,0,0,0,720.83,337.51Zm-31.25,125H595.84a31.24,31.24,0,0,0-31.25,31.24v93.74H502.1V493.74a31.24,31.24,0,0,0-31.25-31.24H377.11V400h93.74a31.25,31.25,0,0,0,31.25-31.25V275h62.49v93.74A31.25,31.25,0,0,0,595.84,400h93.74Z" style="fill:#231f20"/><path d="M975.39,91.66C853.55-30.4,655.82-30.57,533.76,91.27l-.41.42C411.55-30.37,213.86-30.58,91.8,91.21l-.47.48c-121.77,122-121.77,319.61,0,441.64l420,420a31.24,31.24,0,0,0,44.18,0l420-420c121.76-122.05,121.75-319.64,0-441.67ZM533.35,887,135.48,489.15c-97.55-97.69-97.45-256,.24-353.52A250,250,0,0,1,312.43,62.54a247.35,247.35,0,0,1,176.64,73.33l22.18,22.19a31.25,31.25,0,0,0,44.19,0l22.24-22.25c97.45-97.62,255.59-97.77,353.21-.32.11.11.22.21.32.32,97.46,97.59,97.46,255.68,0,353.28Z" style="fill:#231f20"/></svg>