<svg xmlns="http://www.w3.org/2000/svg" viewBox="0 0 476.16 385.22"><path d="M107.76,131.38,71.52,27A25,25,0,0,0,43,8.42,24.06,24.06,0,0,0,24.53,37q.12.57.27,1.14L62.08,153.22Z" style="fill:#ffac96"/><path d="M368.4,131.38,404.64,27A25,25,0,0,1,433.12,8.42,24.06,24.06,0,0,1,451.63,37q-.12.57-.27,1.14L414.08,153.22Z" style="fill:#ffac96"/><path d="M182.45,174.68l-70.72-41.46a24,24,0,0,0-30.4,5.43L55.52,59A25,25,0,0,0,27,40.42,24.06,24.06,0,0,0,8.53,69q.12.57.27,1.14L43.6,199.94a31.65,31.65,0,0,0,9.68,15.68l54.08,48.08a32,32,0,0,1,10.72,23.92v25.6h96V229.89A64,64,0,0,0,182.45,174.68Z" style="fill:#ffbcab"/><path d="M449.12,40.42A25,25,0,0,0,420.64,59L394.8,138.65a24,24,0,0,0-30.4-5.43l-70.72,41.46a64,64,0,0,0-31.6,55.21v83.33h96v-25.6A32,32,0,0,1,368.8,263.7l54.08-48.08a31.65,31.65,0,0,0,9.68-15.68L467.36,70.1a24.06,24.06,0,0,0-17.1-29.41l-1.14-.27Z" style="fill:#ffbcab"/><path d="M254.08,313.22v64h112v-64h-112Z" style="fill:#006df0"/><path d="M222.08,313.22h-112v64h112Z" style="fill:#006df0"/><path d="M388.43,158.82,335,188.42a6.93,6.93,0,0,0,6.56,12.2l.37-.2,46.54-25.6A24,24,0,0,0,399,146a23.74,23.74,0,0,1-10.55,12.87Z" style="fill:#ffac96"/><path d="M87.73,158.82l53.47,29.6a6.93,6.93,0,0,1-6.56,12.2l-.37-.2-46.54-25.6A24,24,0,0,1,77.18,146a23.74,23.74,0,0,0,10.55,12.87Z" style="fill:#ffac96"/><path d="M459.92,36.1a37.53,37.53,0,0,0,.24-4.24A32.17,32.17,0,0,0,434.72.58a32.57,32.57,0,0,0-37.6,23.76l-35.2,101.28a14.07,14.07,0,0,0-1.52.72l-70.72,41.44a72.12,72.12,0,0,0-35.6,62.08v75.36a8,8,0,0,0-8,8v64a8,8,0,0,0,8,8h112a8,8,0,0,0,8-8v-64a8,8,0,0,0-8-8v-17.6a24.29,24.29,0,0,1,8-17.92l54.08-48.08A39.43,39.43,0,0,0,440.32,202L475,72.18a31.6,31.6,0,0,0,1.12-8.32A32.16,32.16,0,0,0,459.92,36.1Zm-47.52-7a16.91,16.91,0,0,1,19-12.8,16,16,0,0,1,12.72,15.6V32A32.79,32.79,0,0,0,413,56.5l-22.32,68.88a33.67,33.67,0,0,0-10.72-3ZM358.08,369.22h-96v-48h96ZM459.6,68,424.8,197.94a23.84,23.84,0,0,1-7.2,11.68L363.44,257.7a40.45,40.45,0,0,0-13.36,29.92v17.6h-80V229.86a56.4,56.4,0,0,1,27.68-48.32l70.64-41.36A16,16,0,0,1,390.28,146l0,.07a16.48,16.48,0,0,1,1.6,12.16,16,16,0,0,1-7.52,9.68l-45.84,26.48a8,8,0,0,0,8,13.84L392.4,181.7a31.58,31.58,0,0,0,15-19.44,32,32,0,0,0-3.2-24.24l-.48-.72L428.4,61.06a16.91,16.91,0,0,1,19-12.8,16,16,0,0,1,12.72,15.6A13.61,13.61,0,0,1,459.6,68Z" style="fill:#231f20"/><path d="M222.08,305.22V229.86a72.12,72.12,0,0,0-35.6-62.08l-70.72-41.52c-.48-.24-1-.4-1.52-.64L79.28,24.9A32.86,32.86,0,0,0,41.44.58,32.17,32.17,0,0,0,16,31.86a37.53,37.53,0,0,0,.24,4.24A32.16,32.16,0,0,0,0,63.86a35.37,35.37,0,0,0,1,8.32l34.8,129.76A39.36,39.36,0,0,0,48,221.62l54,48.08a24.07,24.07,0,0,1,8.08,17.92v17.6a8,8,0,0,0-8,8v64a8,8,0,0,0,8,8h112a8,8,0,0,0,8-8v-64A8,8,0,0,0,222.08,305.22ZM32,31.86a16,16,0,0,1,12.64-15.6A17.29,17.29,0,0,1,64,29.62l32.16,92.72a33.67,33.67,0,0,0-10.72,3L63.28,56.9A33.19,33.19,0,0,0,32,32ZM112.64,257.7,58.56,209.62a23.7,23.7,0,0,1-7.2-11.76L16.48,68A17.14,17.14,0,0,1,16,63.86a16,16,0,0,1,12.64-15.6,17.15,17.15,0,0,1,19.28,13.2L72.48,137.3,72,138a32,32,0,0,0-3.2,24.24,31.58,31.58,0,0,0,15,19.44l45.84,26.48a8,8,0,0,0,8-13.84L91.76,167.86a16,16,0,0,1-7.52-9.68A16.48,16.48,0,0,1,85.84,146a16,16,0,0,1,21.84-5.92h0l70.72,41.44a56.4,56.4,0,0,1,27.68,48.32v75.36h-80v-17.6a40.23,40.23,0,0,0-13.44-29.92ZM214.08,369.22h-96v-48h96Z" style="fill:#231f20"/></svg>